<?xml version="1.0" encoding="utf-8"?>
<!-- Generator: Adobe Illustrator 23.0.2, SVG Export Plug-In . SVG Version: 6.00 Build 0)  -->
<svg version="1.1" id="Layer_1" xmlns="http://www.w3.org/2000/svg" xmlns:xlink="http://www.w3.org/1999/xlink" x="0px" y="0px"
	 viewBox="0 0 90 90" style="enable-background:new 0 0 90 90;" xml:space="preserve">
<style type="text/css">
	.st0{fill:#FFFFFF;}
	.st1{fill:#242E3D;}
	.st2{fill:#FF9900;}
</style>
<g>
	<path class="st0" d="M61.2,0H0v61.5L28.5,90H90V28.8L61.2,0z M61.2,0"/>
	<path class="st1" d="M60.4,1.9l27.7,27.7v58.6H29.3L1.9,60.8V1.9H60.4 M61.2,0H0v61.5L28.5,90H90V28.8L61.2,0z M61.2,0"/>
	<path class="st1" d="M14.6,50.7V54h-1.9v-9h3.4c0.8-0.1,1.6,0.2,2.3,0.8c1.1,1.2,1.1,3,0,4.2c-0.6,0.5-1.4,0.8-2.3,0.8H14.6z
		 M14.6,49.3H16c0.4,0,0.8-0.1,1-0.4c0.4-0.6,0.4-1.5,0-2.1c-0.3-0.2-0.6-0.4-1-0.4h-1.4V49.3z M27.1,54l-0.6-2h-3.1l-0.6,2h-2
		l3.1-9h2.2l3.1,9H27.1z M23.9,50.6h2.3L25,46.8L23.9,50.6z M31.9,54v-9h3.4c0.8-0.1,1.6,0.2,2.3,0.8c0.5,0.5,0.8,1.3,0.8,2
		c0,0.5-0.2,1-0.5,1.4c-0.3,0.4-0.8,0.8-1.2,1l2.3,3.9h-2l-1.9-3.5h-1.3V54H31.9z M33.8,49.1h1.4c0.7,0.1,1.3-0.4,1.3-1.1
		c0-0.1,0-0.2,0-0.4c0.1-0.7-0.4-1.3-1-1.3c-0.1,0-0.2,0-0.3,0h-1.4L33.8,49.1L33.8,49.1z M43.6,54v-7.4h-2.8V45h7.4v1.6h-2.8V54
		H43.6z M53,47.8V54h-1.7v-9h2.1l3.7,6.3V45h1.7v9h-2.1L53,47.8z M62.2,54v-9h5.9v1.5h-4v2.1h3.2v1.5h-3.2v2.4h4V54H62.2z M71.6,54
		v-9h3.4c0.8-0.1,1.6,0.2,2.3,0.8c0.5,0.5,0.8,1.3,0.8,2c0,0.5-0.1,1-0.4,1.4s-0.8,0.8-1.2,1l2.3,3.9h-2l-2-3.5h-1.3V54H71.6z
		 M73.5,49.1h1.4c0.7,0.1,1.3-0.4,1.3-1.1c0-0.1,0-0.2,0-0.4c0.1-0.7-0.4-1.3-1-1.3c-0.1,0-0.2,0-0.3,0h-1.4V49.1z M73.5,49.1"/>
	<path class="st1" d="M20,20.6c0,0.3,0,0.6,0.2,0.9c0.1,0.2,0.2,0.5,0.3,0.8c0.1,0.1,0.1,0.2,0.1,0.2c0,0.1-0.1,0.2-0.2,0.3
		l-0.7,0.4c0,0-0.1,0-0.2,0c-0.2,0-0.2-0.1-0.3-0.1c-0.1-0.2-0.3-0.3-0.4-0.5c-0.1-0.1-0.2-0.4-0.3-0.6c-0.8,0.9-1.8,1.4-3,1.4
		c-0.8,0.1-1.5-0.2-2-0.8c-0.5-0.5-0.8-1.2-0.8-2c0-0.8,0.3-1.6,0.9-2.1c0.7-0.5,1.6-0.8,2.5-0.8c0.4,0,0.8,0,1.1,0.1
		c0.4,0.1,0.8,0.1,1.1,0.2v-0.8c0.1-0.6-0.1-1.2-0.5-1.6c-0.4-0.4-1-0.5-1.6-0.4c-0.4,0-0.8,0.1-1.1,0.1s-0.8,0.2-1.1,0.4
		c-0.1,0.1-0.2,0.1-0.4,0.2c-0.1,0-0.1,0-0.1,0c-0.2,0-0.2-0.1-0.2-0.3v-0.5c0-0.1,0-0.2,0.1-0.4c0.1-0.1,0.2-0.1,0.3-0.2
		c0.4-0.2,0.8-0.4,1.3-0.4c0.5-0.2,1.1-0.2,1.6-0.2c1-0.1,1.9,0.2,2.6,0.8c0.6,0.7,0.9,1.6,0.8,2.5L20,20.6z M15.9,22.1
		c0.4,0,0.7-0.1,1.1-0.1c0.4-0.2,0.7-0.4,1-0.7c0.1-0.2,0.3-0.4,0.4-0.7s0.1-0.6,0.1-0.9v-0.5c-0.3-0.1-0.6-0.1-0.9-0.1
		c-0.3-0.1-0.6-0.1-1-0.1C16,19,15.4,19.1,15,19.4c-0.6,0.6-0.7,1.6-0.1,2.3C15.1,22.1,15.5,22.2,15.9,22.1L15.9,22.1z M24.1,23.3
		c-0.1,0-0.3,0-0.4-0.1c-0.1-0.1-0.1-0.2-0.2-0.4l-2.4-7.9C21,14.8,21,14.6,21,14.6c0-0.2,0.1-0.2,0.1-0.2h0.1h1
		c0.2,0,0.3,0,0.4,0.1c0.1,0.1,0.2,0.2,0.2,0.4l1.7,6.7l1.6-6.7c0-0.1,0.1-0.3,0.2-0.4c0.2-0.1,0.3-0.1,0.4-0.1h0.8
		c0.2,0,0.3,0,0.4,0.1c0.1,0.1,0.2,0.2,0.2,0.4l1.6,6.8l1.7-6.8c0-0.1,0.1-0.3,0.2-0.4c0.2-0.1,0.2-0.1,0.4-0.1h1
		c0.1,0,0.2,0.1,0.2,0.2v0.1c0,0.1,0,0.1,0,0.1s-0.1,0.2-0.1,0.2l-2.4,7.8c0,0.1-0.1,0.3-0.2,0.4c-0.1,0.1-0.2,0.1-0.4,0.1h-0.9
		c-0.1,0-0.3,0-0.4-0.1c-0.1-0.2-0.1-0.2-0.2-0.4l-1.6-6.5l-1.6,6.5c0,0.1-0.1,0.3-0.2,0.4c-0.1,0.1-0.2,0.1-0.3,0.1H24.1z
		 M37.1,23.6c-0.5,0-1.1-0.1-1.6-0.2c-0.4-0.1-0.8-0.2-1.2-0.4c-0.2-0.1-0.4-0.3-0.4-0.6v-0.5c0-0.2,0.1-0.3,0.2-0.3
		c0.1,0,0.2,0,0.2,0c0.1,0,0.1,0.1,0.2,0.1c0.4,0.1,0.8,0.3,1.1,0.4c0.4,0.1,0.8,0.1,1.2,0.1c0.5,0,1.1-0.1,1.5-0.4
		c0.3-0.2,0.5-0.6,0.5-1c0-0.3-0.1-0.5-0.3-0.7c-0.3-0.2-0.7-0.4-1.1-0.5l-1.5-0.4c-0.6-0.1-1.2-0.5-1.6-1.1c-0.3-0.4-0.5-1-0.5-1.5
		c0-0.4,0.1-0.8,0.3-1.1c0.2-0.3,0.4-0.6,0.8-0.8c0.3-0.2,0.7-0.4,1.1-0.5c0.4-0.2,0.8-0.2,1.3-0.2c0.2,0,0.5,0,0.7,0.1
		c0.2,0,0.4,0.1,0.7,0.1s0.4,0.1,0.6,0.1c0.1,0.1,0.3,0.1,0.4,0.2c0.1,0.1,0.2,0.1,0.3,0.2c0.1,0.1,0.1,0.2,0.1,0.4v0.5
		c0,0.2-0.1,0.3-0.2,0.3c-0.1,0-0.3-0.1-0.4-0.1c-0.6-0.3-1.3-0.4-1.9-0.4c-0.4,0-0.9,0.1-1.4,0.3c-0.3,0.1-0.5,0.5-0.4,0.9
		c0,0.3,0.1,0.5,0.3,0.8c0.3,0.3,0.7,0.4,1.1,0.5l1.4,0.4c0.6,0.1,1.1,0.5,1.6,1c0.3,0.4,0.4,0.9,0.4,1.4c0,0.4-0.1,0.8-0.3,1.2
		c-0.1,0.4-0.4,0.7-0.8,0.9c-0.3,0.2-0.8,0.4-1.1,0.6C38.1,23.5,37.6,23.6,37.1,23.6L37.1,23.6z M37.1,23.6"/>
	<path class="st2" d="M39,28.4c-3.4,2.5-8.2,3.8-12.4,3.8c-5.6,0-10.9-2-15.1-5.8c-0.3-0.3,0-0.7,0.4-0.4C16.5,28.6,21.8,30,27,30
		c4,0,7.9-0.8,11.6-2.3C39.1,27.4,39.6,28.1,39,28.4L39,28.4z M39.5,30.7c-0.1,0.3,0.2,0.4,0.5,0.2c1.8-1.5,2.3-4.6,1.9-5.1
		c-0.4-0.4-3.5-0.8-5.4,0.5c-0.3,0.2-0.2,0.5,0.1,0.4c1.1-0.1,3.5-0.4,3.9,0.2C40.9,27.5,39.9,29.7,39.5,30.7L39.5,30.7z M39.5,30.7
		"/>
	<path class="st1" d="M44.6,59.9c-0.4-0.2-0.7-0.4-0.9-0.6c-0.2-0.2-0.3-0.5-0.3-0.8c0-0.5,0.2-0.8,0.5-1.1c0.3-0.3,0.8-0.4,1.3-0.4
		c0.5,0,0.9,0.1,1.4,0.3v0.7c-0.5-0.1-0.9-0.2-1.3-0.2c-0.7,0-1,0.2-1,0.7c0,0.2,0.1,0.3,0.2,0.4c0.1,0.1,0.3,0.2,0.6,0.3l0.6,0.2
		c0.4,0.2,0.7,0.3,0.9,0.6c0.2,0.2,0.3,0.5,0.3,0.8c0,0.5-0.2,0.9-0.5,1.2c-0.4,0.3-0.8,0.4-1.5,0.4c-0.3,0-0.5,0-0.8-0.1
		c-0.3-0.1-0.5-0.1-0.7-0.2v-0.7c0.2,0.1,0.5,0.1,0.8,0.2c0.3,0,0.5,0.1,0.7,0.1c0.4,0,0.6-0.1,0.8-0.2c0.2-0.1,0.3-0.3,0.3-0.6
		c0-0.2-0.1-0.3-0.2-0.4c-0.1-0.1-0.3-0.2-0.6-0.3L44.6,59.9z M44.6,59.9"/>
	<path class="st1" d="M48.5,60.6c0,0.4,0.1,0.7,0.3,0.8c0.2,0.2,0.5,0.3,0.9,0.3c0.4,0,0.8-0.1,1.2-0.2v0.6
		c-0.2,0.1-0.4,0.2-0.6,0.2c-0.2,0.1-0.5,0.1-0.7,0.1c-0.6,0-1.1-0.2-1.4-0.5c-0.3-0.3-0.5-0.8-0.5-1.5c0-0.6,0.2-1.1,0.5-1.5
		c0.3-0.4,0.8-0.5,1.3-0.5c0.5,0,0.9,0.1,1.1,0.4c0.3,0.3,0.4,0.6,0.4,1.1c0,0.3,0,0.5-0.1,0.7H48.5z M49.4,59
		c-0.3,0-0.5,0.1-0.7,0.3c-0.2,0.2-0.3,0.4-0.3,0.7h1.7v-0.1c0-0.3-0.1-0.5-0.2-0.7C49.9,59.1,49.7,59,49.4,59L49.4,59z M49.4,59"/>
	<path class="st1" d="M53.3,62.2c-0.2,0.1-0.4,0.1-0.6,0.1c-0.3,0-0.5-0.1-0.7-0.2c-0.1-0.2-0.2-0.4-0.2-0.7v-4.6h0.9v4.5
		c0,0.1,0,0.2,0.1,0.3c0,0.1,0.1,0.1,0.2,0.1c0.1,0,0.2,0,0.3,0V62.2z M53.3,62.2"/>
	<path class="st1" d="M54.7,60.6c0,0.4,0.1,0.7,0.3,0.8c0.2,0.2,0.5,0.3,0.9,0.3c0.4,0,0.8-0.1,1.2-0.2v0.6
		c-0.2,0.1-0.4,0.2-0.6,0.2c-0.2,0.1-0.5,0.1-0.7,0.1c-0.6,0-1.1-0.2-1.4-0.5c-0.3-0.3-0.5-0.8-0.5-1.5c0-0.6,0.2-1.1,0.5-1.5
		c0.3-0.4,0.8-0.5,1.3-0.5c0.5,0,0.9,0.1,1.1,0.4c0.3,0.3,0.4,0.6,0.4,1.1c0,0.3,0,0.5-0.1,0.7H54.7z M55.7,59
		c-0.3,0-0.5,0.1-0.7,0.3c-0.2,0.2-0.3,0.4-0.3,0.7h1.7v-0.1c0-0.3-0.1-0.5-0.2-0.7C56.1,59.1,55.9,59,55.7,59L55.7,59z M55.7,59"/>
	<path class="st1" d="M60.8,62.1c-0.3,0.2-0.6,0.2-1.1,0.2c-0.6,0-1-0.2-1.4-0.5c-0.3-0.3-0.5-0.8-0.5-1.5c0-0.6,0.2-1.1,0.5-1.5
		c0.3-0.4,0.8-0.5,1.4-0.5c0.4,0,0.7,0.1,1,0.2v0.6c-0.3-0.1-0.6-0.2-0.9-0.2c-0.4,0-0.7,0.1-0.8,0.3c-0.2,0.2-0.3,0.5-0.3,1v0.1
		c0,0.4,0.1,0.7,0.3,0.9c0.2,0.2,0.5,0.3,0.8,0.3c0.3,0,0.6-0.1,0.9-0.2V62.1z M60.8,62.1"/>
	<path class="st1" d="M63.8,62.2c-0.3,0.1-0.5,0.1-0.8,0.1c-0.4,0-0.7-0.1-0.9-0.3c-0.2-0.2-0.3-0.5-0.3-0.9v-2.1h-0.6v-0.6l0.7-0.1
		l0.1-1.1h0.7v1h1.1v0.7h-1.1v2c0,0.2,0,0.3,0.1,0.4c0.1,0.1,0.2,0.1,0.4,0.1c0.2,0,0.4,0,0.6-0.1V62.2z M63.8,62.2"/>
	<path class="st1" d="M67.7,62.3v-4.5H66V57h4.2v0.8h-1.6v4.5H67.7z M67.7,62.3"/>
	<path class="st1" d="M70.9,62.3v-3.8h0.9v3.8H70.9z M71.3,57.8c-0.2,0-0.3,0-0.4-0.1c-0.1-0.1-0.1-0.2-0.1-0.4c0-0.2,0-0.3,0.1-0.4
		c0.1-0.1,0.2-0.1,0.4-0.1c0.2,0,0.3,0,0.4,0.1c0.1,0.1,0.1,0.2,0.1,0.4c0,0.2,0,0.3-0.1,0.4C71.6,57.8,71.5,57.8,71.3,57.8
		L71.3,57.8z M71.3,57.8"/>
	<path class="st1" d="M73.5,60.6c0,0.4,0.1,0.7,0.3,0.8c0.2,0.2,0.5,0.3,0.9,0.3c0.4,0,0.8-0.1,1.2-0.2v0.6
		c-0.2,0.1-0.4,0.2-0.6,0.2c-0.2,0.1-0.5,0.1-0.7,0.1c-0.6,0-1.1-0.2-1.4-0.5c-0.3-0.3-0.5-0.8-0.5-1.5c0-0.6,0.2-1.1,0.5-1.5
		c0.3-0.4,0.8-0.5,1.3-0.5c0.5,0,0.9,0.1,1.1,0.4c0.3,0.3,0.4,0.6,0.4,1.1c0,0.3,0,0.5-0.1,0.7H73.5z M74.4,59
		c-0.3,0-0.5,0.1-0.7,0.3c-0.2,0.2-0.3,0.4-0.3,0.7h1.7v-0.1c0-0.3-0.1-0.5-0.2-0.7C74.9,59.1,74.7,59,74.4,59L74.4,59z M74.4,59"/>
	<path class="st1" d="M76.9,62.3v-3.8h0.7l0.1,0.6c0.2-0.2,0.4-0.4,0.6-0.5c0.2-0.1,0.4-0.1,0.6-0.1c0.1,0,0.2,0,0.3,0v0.8
		c-0.1,0-0.3,0-0.4,0c-0.4,0-0.7,0.1-1,0.3v2.8H76.9z M76.9,62.3"/>
	<path class="st1" d="M53.1,67.4c-0.4-0.2-0.7-0.4-0.9-0.6c-0.2-0.2-0.3-0.5-0.3-0.8c0-0.5,0.2-0.8,0.5-1.1c0.3-0.3,0.8-0.4,1.3-0.4
		c0.5,0,0.9,0.1,1.4,0.3v0.7c-0.5-0.1-0.9-0.2-1.3-0.2c-0.7,0-1,0.2-1,0.7c0,0.2,0.1,0.3,0.2,0.4c0.1,0.1,0.3,0.2,0.6,0.3l0.6,0.2
		c0.4,0.2,0.7,0.3,0.9,0.6c0.2,0.2,0.3,0.5,0.3,0.8c0,0.5-0.2,0.9-0.5,1.2c-0.4,0.3-0.8,0.4-1.5,0.4c-0.3,0-0.5,0-0.8-0.1
		c-0.3-0.1-0.5-0.1-0.7-0.2v-0.7c0.2,0.1,0.5,0.1,0.8,0.2c0.3,0,0.5,0.1,0.7,0.1c0.4,0,0.6-0.1,0.8-0.2c0.2-0.1,0.3-0.3,0.3-0.6
		c0-0.2-0.1-0.3-0.2-0.4c-0.1-0.1-0.3-0.2-0.6-0.3L53.1,67.4z M53.1,67.4"/>
	<path class="st1" d="M56.9,68.1c0,0.4,0.1,0.7,0.3,0.8c0.2,0.2,0.5,0.3,0.9,0.3c0.4,0,0.8-0.1,1.2-0.2v0.6
		c-0.2,0.1-0.4,0.2-0.6,0.2c-0.2,0.1-0.5,0.1-0.7,0.1c-0.6,0-1.1-0.2-1.4-0.5c-0.3-0.3-0.5-0.8-0.5-1.5c0-0.6,0.2-1.1,0.5-1.5
		c0.3-0.4,0.8-0.5,1.3-0.5c0.5,0,0.9,0.1,1.1,0.4c0.3,0.3,0.4,0.6,0.4,1.1c0,0.3,0,0.5-0.1,0.7H56.9z M57.9,66.5
		c-0.3,0-0.5,0.1-0.7,0.3c-0.2,0.2-0.3,0.4-0.3,0.7h1.7v-0.1c0-0.3-0.1-0.5-0.2-0.7C58.3,66.6,58.1,66.5,57.9,66.5L57.9,66.5z
		 M57.9,66.5"/>
	<path class="st1" d="M60.3,69.8v-3.8h0.7l0.1,0.6c0.2-0.2,0.4-0.4,0.6-0.5c0.2-0.1,0.4-0.1,0.6-0.1c0.1,0,0.2,0,0.3,0v0.8
		c-0.1,0-0.3,0-0.4,0c-0.4,0-0.7,0.1-1,0.3v2.8H60.3z M60.3,69.8"/>
	<path class="st1" d="M64.2,69.8l-1.5-3.8h0.9l1,3l1-3h0.9l-1.5,3.8H64.2z M64.2,69.8"/>
	<path class="st1" d="M67.2,69.8v-3.8H68v3.8H67.2z M67.6,65.3c-0.2,0-0.3,0-0.4-0.1c-0.1-0.1-0.1-0.2-0.1-0.4c0-0.2,0-0.3,0.1-0.4
		c0.1-0.1,0.2-0.1,0.4-0.1c0.2,0,0.3,0,0.4,0.1c0.1,0.1,0.1,0.2,0.1,0.4c0,0.2,0,0.3-0.1,0.4C67.9,65.3,67.8,65.3,67.6,65.3
		L67.6,65.3z M67.6,65.3"/>
	<path class="st1" d="M71.8,69.6c-0.3,0.2-0.6,0.2-1.1,0.2c-0.6,0-1-0.2-1.4-0.5c-0.3-0.3-0.5-0.8-0.5-1.5c0-0.6,0.2-1.1,0.5-1.5
		c0.3-0.4,0.8-0.5,1.4-0.5c0.4,0,0.7,0.1,1,0.2v0.6c-0.3-0.1-0.6-0.2-0.9-0.2c-0.4,0-0.7,0.1-0.8,0.3c-0.2,0.2-0.3,0.5-0.3,0.9v0.1
		c0,0.4,0.1,0.7,0.3,0.9c0.2,0.2,0.5,0.3,0.8,0.3c0.3,0,0.6-0.1,0.9-0.2V69.6z M71.8,69.6"/>
	<path class="st1" d="M73.2,68.1c0,0.4,0.1,0.7,0.3,0.8c0.2,0.2,0.5,0.3,0.9,0.3c0.4,0,0.8-0.1,1.2-0.2v0.6
		c-0.2,0.1-0.4,0.2-0.6,0.2c-0.2,0.1-0.5,0.1-0.7,0.1c-0.6,0-1.1-0.2-1.4-0.5c-0.3-0.3-0.5-0.8-0.5-1.5c0-0.6,0.2-1.1,0.5-1.5
		c0.3-0.4,0.8-0.5,1.3-0.5c0.5,0,0.9,0.1,1.1,0.4c0.3,0.3,0.4,0.6,0.4,1.1c0,0.3,0,0.5-0.1,0.7H73.2z M74.2,66.5
		c-0.3,0-0.5,0.1-0.7,0.3c-0.2,0.2-0.3,0.4-0.3,0.7H75v-0.1c0-0.3-0.1-0.5-0.2-0.7C74.6,66.6,74.4,66.5,74.2,66.5L74.2,66.5z
		 M74.2,66.5"/>
	<path class="st1" d="M78.3,68.7c0-0.1,0-0.2-0.1-0.3c-0.1-0.1-0.2-0.1-0.4-0.2L77.2,68c-0.6-0.2-0.8-0.6-0.8-1.1
		c0-0.4,0.1-0.6,0.4-0.8c0.3-0.2,0.6-0.3,1-0.3c0.4,0,0.8,0.1,1.1,0.2v0.6c-0.4-0.1-0.7-0.2-1.1-0.2c-0.2,0-0.4,0-0.5,0.1
		c-0.1,0.1-0.2,0.2-0.2,0.3c0,0.1,0,0.2,0.1,0.3c0.1,0.1,0.2,0.1,0.4,0.2l0.6,0.2c0.3,0.1,0.5,0.3,0.6,0.4c0.1,0.2,0.2,0.4,0.2,0.6
		c0,0.4-0.1,0.7-0.4,0.9c-0.3,0.2-0.6,0.3-1.1,0.3c-0.2,0-0.5,0-0.7-0.1c-0.2,0-0.4-0.1-0.6-0.2V69c0.5,0.2,0.9,0.2,1.3,0.2
		c0.3,0,0.4,0,0.5-0.1C78.3,69,78.3,68.9,78.3,68.7L78.3,68.7z M78.3,68.7"/>
</g>
</svg>
